<svg width="90" height="76" viewBox="0 0 90 76" fill="none" xmlns="http://www.w3.org/2000/svg">
<path d="M55.4982 16.125C55.2681 16.1245 55.0401 16.1696 54.8275 16.2575C54.6148 16.3455 54.4217 16.4746 54.2591 16.6375L32.7623 38.1344C32.4336 38.463 32.249 38.9087 32.249 39.3734C32.249 39.8382 32.4336 40.2839 32.7623 40.6125C33.0909 40.9411 33.5366 41.1257 34.0013 41.1257C34.4661 41.1257 34.9118 40.9411 35.2404 40.6125L56.7373 19.1156C56.9824 18.8707 57.1494 18.5585 57.2171 18.2186C57.2848 17.8787 57.2501 17.5263 57.1174 17.2061C56.9848 16.8859 56.7601 16.6123 56.4719 16.4199C56.1836 16.2274 55.8448 16.1248 55.4982 16.125Z" fill="#FFBB15"/>
<path d="M44.75 6.75006C39.9037 6.7401 35.129 7.91915 30.8444 10.1839C26.5598 12.4486 22.8962 15.7298 20.1747 19.7398C17.4533 23.7499 15.7572 28.3663 15.235 33.1844C14.7128 38.0025 15.3806 42.8751 17.1797 47.3751H72.3203C74.1194 42.8751 74.7872 38.0025 74.265 33.1844C73.7428 28.3663 72.0467 23.7499 69.3253 19.7398C66.6038 15.7298 62.9402 12.4486 58.6556 10.1839C54.371 7.91915 49.5963 6.7401 44.75 6.75006ZM36.9375 14.5626C37.8646 14.5626 38.7709 14.8375 39.5417 15.3525C40.3126 15.8676 40.9134 16.5997 41.2682 17.4562C41.623 18.3128 41.7158 19.2553 41.5349 20.1646C41.3541 21.0738 40.9076 21.9091 40.2521 22.5646C39.5965 23.2202 38.7613 23.6666 37.852 23.8475C36.9427 24.0284 36.0002 23.9355 35.1437 23.5807C34.2871 23.226 33.5551 22.6252 33.04 21.8543C32.5249 21.0834 32.25 20.1772 32.25 19.2501C32.25 18.0069 32.7439 16.8146 33.6229 15.9355C34.502 15.0564 35.6943 14.5626 36.9375 14.5626ZM52.5625 42.6876C51.6354 42.6876 50.7291 42.4126 49.9583 41.8976C49.1874 41.3825 48.5866 40.6504 48.2318 39.7939C47.877 38.9374 47.7842 37.9949 47.9651 37.0856C48.1459 36.1763 48.5924 35.3411 49.2479 34.6855C49.9035 34.0299 50.7387 33.5835 51.648 33.4026C52.5573 33.2218 53.4998 33.3146 54.3563 33.6694C55.2129 34.0242 55.9449 34.625 56.46 35.3958C56.9751 36.1667 57.25 37.073 57.25 38.0001C57.25 39.2433 56.7561 40.4356 55.8771 41.3146C54.998 42.1937 53.8057 42.6876 52.5625 42.6876ZM58.9469 21.3251L37.45 42.8219C36.5354 43.7365 35.295 44.2503 34.0016 44.2503C32.7081 44.2503 31.4677 43.7365 30.5531 42.8219C29.6385 41.9074 29.1247 40.6669 29.1247 39.3735C29.1247 38.0801 29.6385 36.8396 30.5531 35.9251L52.05 14.4282C52.5029 13.9753 53.0405 13.6161 53.6322 13.371C54.2238 13.1259 54.858 12.9998 55.4984 12.9998C56.1389 12.9998 56.773 13.1259 57.3647 13.371C57.9564 13.6161 58.494 13.9753 58.9469 14.4282C59.3997 14.881 59.759 15.4187 60.004 16.0103C60.2491 16.602 60.3753 17.2362 60.3753 17.8766C60.3753 18.5171 60.2491 19.1512 60.004 19.7429C59.759 20.3346 59.3997 20.8722 58.9469 21.3251Z" fill="#FFBB15"/>
<path d="M13.8438 47.3755C12.0781 42.424 11.5279 37.1208 12.2396 31.9123C12.9512 26.7039 14.9039 21.7426 17.9331 17.4463C20.9624 13.15 24.9795 9.64442 29.6464 7.22468C34.3132 4.80495 39.4931 3.54191 44.75 3.54191C50.0069 3.54191 55.1868 4.80495 59.8536 7.22468C64.5205 9.64442 68.5376 13.15 71.5669 17.4463C74.5961 21.7426 76.5488 26.7039 77.2604 31.9123C77.9721 37.1208 77.4219 42.424 75.6562 47.3755H78.9688C80.6983 41.9859 81.1303 36.264 80.2296 30.6759C79.3289 25.0877 77.1209 19.7914 73.7856 15.2182C70.4502 10.645 66.0818 6.92429 61.0362 4.35917C55.9905 1.79404 50.4103 0.457031 44.75 0.457031C39.0897 0.457031 33.5095 1.79404 28.4638 4.35917C23.4182 6.92429 19.0498 10.645 15.7144 15.2182C12.3791 19.7914 10.1711 25.0877 9.27042 30.6759C8.36971 36.264 8.80172 41.9859 10.5313 47.3755H13.8438ZM22.875 55.188H26V61.438H22.875V55.188Z" fill="#FFBB15"/>
<path d="M52.5625 39.5625C53.4254 39.5625 54.125 38.8629 54.125 38C54.125 37.1371 53.4254 36.4375 52.5625 36.4375C51.6996 36.4375 51 37.1371 51 38C51 38.8629 51.6996 39.5625 52.5625 39.5625Z" fill="#FFBB15"/>
<path d="M36.9375 20.8125C37.8004 20.8125 38.5 20.1129 38.5 19.25C38.5 18.3871 37.8004 17.6875 36.9375 17.6875C36.0746 17.6875 35.375 18.3871 35.375 19.25C35.375 20.1129 36.0746 20.8125 36.9375 20.8125Z" fill="#FFBB15"/>
<path d="M80.6875 50.5H8.8125V66.125H80.6875V50.5ZM29.125 63C29.125 63.4144 28.9604 63.8118 28.6674 64.1049C28.3743 64.3979 27.9769 64.5625 27.5625 64.5625H21.3125C20.8981 64.5625 20.5007 64.3979 20.2076 64.1049C19.9146 63.8118 19.75 63.4144 19.75 63V53.625C19.75 53.2106 19.9146 52.8132 20.2076 52.5201C20.5007 52.2271 20.8981 52.0625 21.3125 52.0625H27.5625C27.9769 52.0625 28.3743 52.2271 28.6674 52.5201C28.9604 52.8132 29.125 53.2106 29.125 53.625V63ZM38.5 55.1875H33.8125V56.75H38.5V59.875H33.8125V64.5625H30.6875V53.625C30.6875 53.2106 30.8521 52.8132 31.1451 52.5201C31.4382 52.2271 31.8356 52.0625 32.25 52.0625H38.5V55.1875ZM47.875 55.1875H43.1875V56.75H47.875V59.875H43.1875V64.5625H40.0625V53.625C40.0625 53.2106 40.2271 52.8132 40.5201 52.5201C40.8132 52.2271 41.2106 52.0625 41.625 52.0625H47.875V55.1875ZM57.25 55.1875H52.5625V56.75H57.25V59.875H52.5625V61.4375H57.25V64.5625H51C50.5856 64.5625 50.1882 64.3979 49.8951 64.1049C49.6021 63.8118 49.4375 63.4144 49.4375 63V53.625C49.4375 53.2106 49.6021 52.8132 49.8951 52.5201C50.1882 52.2271 50.5856 52.0625 51 52.0625H57.25V55.1875ZM68.1875 63V64.5625H65.0625V63C65.0625 62.5856 64.8979 62.1882 64.6049 61.8951C64.3118 61.6021 63.9144 61.4375 63.5 61.4375H61.9375V64.5625H58.8125V53.625C58.8125 53.2106 58.9771 52.8132 59.2701 52.5201C59.5632 52.2271 59.9606 52.0625 60.375 52.0625H63.5C64.4046 52.0631 65.2897 52.3255 66.0485 52.8179C66.8074 53.3104 67.4075 54.0119 67.7765 54.8378C68.1455 55.6637 68.2677 56.5788 68.1282 57.4726C67.9888 58.3664 67.5937 59.2007 66.9906 59.875C67.7621 60.7329 68.1885 61.8462 68.1875 63Z" fill="#FFBB15"/>
<path d="M63.4998 55.1875H61.9373V58.3125H63.4998C63.9142 58.3125 64.3116 58.1479 64.6047 57.8549C64.8977 57.5618 65.0623 57.1644 65.0623 56.75C65.0623 56.3356 64.8977 55.9382 64.6047 55.6451C64.3116 55.3521 63.9142 55.1875 63.4998 55.1875ZM5.6873 67.6875V59.875H0.0419922L2.48262 67.1937C2.58937 67.5143 2.58937 67.8607 2.48262 68.1813L0.0419922 75.5H11.9373V69.25H7.2498C6.8354 69.25 6.43798 69.0854 6.14495 68.7924C5.85192 68.4993 5.6873 68.1019 5.6873 67.6875ZM87.017 67.1937L89.4576 59.875H83.8123V67.6875C83.8123 68.1019 83.6477 68.4993 83.3547 68.7924C83.0616 69.0854 82.6642 69.25 82.2498 69.25H77.5623V75.5H89.4576L87.017 68.1813C86.9102 67.8607 86.9102 67.5143 87.017 67.1937ZM44.7498 72.375C49.7935 72.3749 54.7804 71.31 59.3842 69.25H30.1154C34.7192 71.31 39.7061 72.3749 44.7498 72.375Z" fill="#FFBB15"/>
</svg>
