<svg width="101" height="80" viewBox="0 0 101 80" fill="none" xmlns="http://www.w3.org/2000/svg">
<path d="M35.1708 16.9141C34.839 17.7563 34.1767 18.3047 34.1698 18.3102L34.205 18.2834L37.7663 22.9357C40.4817 20.8568 43.1208 15.7924 39.2618 10.3588C38.1349 8.77188 38.3454 7.70449 38.6026 7.04004C38.9634 6.10762 39.6661 5.49121 39.6729 5.48516L39.6425 5.51035L35.9331 0.974609C33.2573 3.1627 30.6636 8.37207 34.4851 13.7516C35.5989 15.3201 35.4097 16.3076 35.1708 16.9141ZM46.8706 17.0406C46.5386 17.8836 45.8765 18.4322 45.8704 18.4375L45.9046 18.4102L49.4661 23.0633C52.1813 20.9842 54.8204 15.9199 50.9614 10.4861C49.8345 8.89844 50.046 7.83106 50.303 7.1666C50.6632 6.23496 51.3657 5.61777 51.3727 5.61191L51.3421 5.63691L47.6329 1.10195C44.9571 3.29004 42.3642 8.49863 46.1849 13.8789C47.2987 15.4469 47.1095 16.4348 46.8708 17.0406H46.8706ZM85.1808 49.1047C85.2524 49.175 85.3212 49.2473 85.3913 49.3184L90.4497 42.9873C93.2931 44.8346 97.1292 44.2568 99.2897 41.5531C101.591 38.6744 101.122 34.4752 98.2423 32.1758C96.538 30.8131 94.3704 30.4225 92.4083 30.9277C92.4685 28.9027 91.6095 26.875 89.9042 25.5123C87.0255 23.2119 82.827 23.6813 80.5269 26.5598C78.3655 29.2645 78.6493 33.1332 81.0776 35.4992L75.0032 43.1012C78.8079 44.1959 82.2976 46.2359 85.181 49.1047H85.1808ZM26.9075 49.1131C32.3366 49.1131 36.7532 53.5297 36.7532 58.9588C36.7541 60.3325 36.4658 61.691 35.9071 62.9459H44.7489C45.4142 57.7152 47.7821 52.8813 51.5786 49.1047C56.0739 44.633 62.0409 42.1711 68.3802 42.1711C68.6036 42.1711 68.8273 42.175 69.0501 42.1809C66.1683 38.8957 62.6786 36.1424 58.8144 34.1258C53.8286 31.5258 48.2034 30.151 42.5454 30.151C30.1179 30.151 19.1751 36.6215 12.9038 46.3695C16.514 46.5961 19.8067 48.0029 22.4046 50.207C23.7964 49.4872 25.3406 49.1121 26.9075 49.1131Z" fill="#FFBB15"/>
<path d="M68.3801 48.0305C59.5338 48.0305 52.1324 54.4934 50.6752 62.9459H86.0848C84.6277 54.4934 77.2264 48.0305 68.3801 48.0305ZM0.75 68.8053H100.75V79.0264H0.75V68.8053ZM13.5545 62.9459H17.9078C17.3491 61.691 17.0608 60.3325 17.0617 58.9588C17.0601 57.3512 17.4547 55.7679 18.2105 54.3491C16.4521 53.0018 14.257 52.1961 11.8752 52.1961H3.10293V52.4944C3.10293 58.2569 7.79199 62.9459 13.5545 62.9459ZM22.9211 58.9588C22.9211 61.1577 24.7094 62.9459 26.9074 62.9459C29.1055 62.9459 30.8937 61.1577 30.8937 58.9588C30.8937 56.7608 29.1055 54.9725 26.9074 54.9725C24.7094 54.9725 22.9211 56.7608 22.9211 58.9588Z" fill="#FFBB15"/>
</svg>
